<svg width="590" height="106" viewBox="0 0 590 106" version="1.1" xmlns="http://www.w3.org/2000/svg" xmlns:xlink="http://www.w3.org/1999/xlink" xmlns:figma="http://www.figma.com/figma/ns">
<title>Logo Hero Art</title>
<desc>Created using Figma</desc>
<g id="Canvas" transform="translate(325 212)" figma:type="canvas">
<mask id="mask0_alpha" mask-type="alpha">
<path d="M -325 -212L 265 -212L 265 -106L -325 -106L -325 -212Z" fill="#FFFFFF"/>
</mask>
<g id="Group" style="mix-blend-mode:normal;" mask="url(#mask0_alpha)" figma:type="frame">
<g id="Bg" style="mix-blend-mode:normal;" figma:type="rounded-rectangle">
<use xlink:href="#path0_fill" transform="matrix(6.12323e-17 1 -1 6.12323e-17 -143.5 -212)" fill="#E5FF6A" style="mix-blend-mode:normal;"/>
</g>
<g id="Le&#226;&#128;&#153;" style="mix-blend-mode:normal;" figma:type="text">
<use xlink:href="#path1_fill" transform="matrix(1 -2.67239e-19 -2.6841e-19 1 -306 -215)" style="mix-blend-mode:normal;"/>
</g>
<g id="crytwer" style="mix-blend-mode:normal;" figma:type="text">
<use xlink:href="#path2_fill" transform="translate(-118 -215)" style="mix-blend-mode:normal;"/>
</g>
</g>
</g>
<defs>
<path id="path0_fill" d="M 0 0L 106 0L 106 182L 0 182L 0 0Z"/>
<path id="path1_fill" d="M 13.2 28.6L 17.072 28.6L 17.072 83.072L 47.432 83.072L 47.432 86.592L 13.2 86.592L 13.2 28.6ZM 59.5416 65.56C 59.5416 62.0987 60.1283 58.9893 61.3016 56.232C 62.5336 53.4747 64.1176 51.1573 66.0536 49.28C 68.0483 47.344 70.307 45.8773 72.8296 44.88C 75.3523 43.824 77.963 43.296 80.6616 43.296C 83.5363 43.296 86.147 43.7653 88.4936 44.704C 90.8403 45.584 92.835 46.8747 94.4776 48.576C 96.1203 50.2187 97.3816 52.2427 98.2616 54.648C 99.1416 57.0533 99.5816 59.7813 99.5816 62.832C 99.5816 63.36 99.5816 63.888 99.5816 64.416C 99.5816 64.944 99.523 65.472 99.4056 66L 63.5896 66C 63.6483 68.64 64.1176 71.104 64.9976 73.392C 65.9363 75.6213 67.1976 77.5573 68.7816 79.2C 70.4243 80.784 72.3603 82.0453 74.5896 82.984C 76.8776 83.864 79.4003 84.304 82.1576 84.304C 84.9736 84.304 87.5256 83.8933 89.8136 83.072C 92.1016 82.192 94.243 81.0773 96.2376 79.728L 97.8216 82.72C 95.8856 83.952 93.6563 85.096 91.1336 86.152C 88.611 87.1493 85.5016 87.648 81.8056 87.648C 78.755 87.648 75.8803 87.1493 73.1816 86.152C 70.483 85.1547 68.107 83.7173 66.0536 81.84C 64.059 79.904 62.475 77.5867 61.3016 74.888C 60.1283 72.1307 59.5416 69.0213 59.5416 65.56ZM 95.7976 62.832C 95.7976 57.4933 94.419 53.4747 91.6616 50.776C 88.963 48.0187 85.3256 46.64 80.7496 46.64C 78.6376 46.64 76.6136 47.0213 74.6776 47.784C 72.7416 48.488 71.011 49.544 69.4856 50.952C 67.9603 52.36 66.6696 54.0613 65.6136 56.056C 64.5576 58.0507 63.883 60.3093 63.5896 62.832L 95.7976 62.832ZM 125.507 50.072C 128.03 48.3707 130.054 46.2587 131.579 43.736C 133.105 41.2133 133.985 38.3093 134.219 35.024C 133.222 35.6107 132.342 35.904 131.579 35.904C 130.054 35.904 128.793 35.4053 127.795 34.408C 126.857 33.4107 126.387 32.1493 126.387 30.624C 126.387 28.9813 126.886 27.632 127.883 26.576C 128.881 25.52 130.171 24.992 131.755 24.992C 133.515 24.992 135.041 25.7547 136.331 27.28C 137.622 28.8053 138.267 30.9173 138.267 33.616C 138.267 37.84 137.241 41.624 135.187 44.968C 133.193 48.312 130.553 50.8933 127.267 52.712L 125.507 50.072Z"/>
<path id="path2_fill" d="M 5.896 64.768C 5.896 61.1307 6.57067 57.904 7.92 55.088C 9.328 52.2133 11.176 49.808 13.464 47.872C 15.8107 45.936 18.5093 44.4693 21.56 43.472C 24.6107 42.416 27.808 41.888 31.152 41.888C 34.6133 41.888 37.7227 42.4453 40.48 43.56C 43.296 44.6747 45.6427 46.0827 47.52 47.784L 41.536 55.792C 38.3093 53.504 35.0827 52.36 31.856 52.36C 28.1013 52.36 25.0507 53.4747 22.704 55.704C 20.3573 57.9333 19.184 60.9547 19.184 64.768C 19.184 68.5813 20.2987 71.6027 22.528 73.832C 24.816 76.0613 27.7787 77.176 31.416 77.176C 33.704 77.176 35.816 76.7653 37.752 75.944C 39.688 75.1227 41.4187 74.1547 42.944 73.04L 48.224 81.224C 45.584 83.4533 42.6507 85.096 39.424 86.152C 36.256 87.1493 33.176 87.648 30.184 87.648C 26.7227 87.648 23.5253 87.1493 20.592 86.152C 17.6587 85.096 15.0773 83.6 12.848 81.664C 10.6773 79.728 8.976 77.352 7.744 74.536C 6.512 71.6613 5.896 68.4053 5.896 64.768ZM 62.9736 42.944L 73.5336 42.944L 74.5896 52.448L 74.8536 52.448C 77.0243 48.8693 79.635 46.2293 82.6856 44.528C 85.7363 42.768 89.0216 41.888 92.5416 41.888C 94.4776 41.888 96.0323 42.0347 97.2056 42.328C 98.4376 42.6213 99.699 43.0613 100.99 43.648L 98.3496 54.472C 97.0003 54.0613 95.7683 53.768 94.6536 53.592C 93.5976 53.3573 92.2483 53.24 90.6056 53.24C 87.907 53.24 85.2376 54.032 82.5976 55.616C 80.0163 57.2 77.787 59.9573 75.9096 63.888L 75.9096 86.592L 62.9736 86.592L 62.9736 42.944ZM 113.715 92.928C 114.83 93.28 115.974 93.456 117.147 93.456C 119.67 93.456 121.635 92.928 123.043 91.872C 124.51 90.816 125.595 89.4373 126.299 87.736L 127.179 85.448L 108.259 42.944L 121.107 42.944L 128.411 61.688C 129.233 63.7413 129.995 65.8827 130.699 68.112C 131.403 70.2827 132.107 72.512 132.811 74.8L 133.163 74.8C 133.75 72.6293 134.395 70.4587 135.099 68.288C 135.803 66.0587 136.478 63.8587 137.123 61.688L 143.547 42.944L 155.779 42.944L 138.531 87.032C 137.475 89.7893 136.331 92.1947 135.099 94.248C 133.867 96.36 132.459 98.0907 130.875 99.44C 129.291 100.848 127.443 101.904 125.331 102.608C 123.278 103.312 120.873 103.664 118.115 103.664C 116.825 103.664 115.622 103.576 114.507 103.4C 113.393 103.283 112.366 103.077 111.427 102.784L 113.715 92.928ZM 173.609 53.064L 162.609 53.064L 162.609 43.472L 174.225 42.944L 175.897 31.328L 186.545 31.328L 186.545 42.944L 205.025 42.944L 205.025 53.064L 186.545 53.064L 186.545 68.376C 186.545 71.72 187.278 74.096 188.745 75.504C 190.212 76.8533 192.529 77.528 195.697 77.528C 197.398 77.528 198.953 77.3813 200.361 77.088C 201.769 76.7947 203.118 76.4133 204.409 75.944L 206.697 85.272C 204.761 85.8587 202.59 86.3867 200.185 86.856C 197.838 87.384 195.257 87.648 192.441 87.648C 188.98 87.648 186.046 87.1787 183.641 86.24C 181.236 85.3013 179.27 84.0107 177.745 82.368C 176.278 80.6667 175.222 78.6427 174.577 76.296C 173.932 73.9493 173.609 71.3387 173.609 68.464L 173.609 53.064ZM 211.415 42.944L 224.087 42.944L 226.727 63.184C 227.02 65.3547 227.255 67.496 227.431 69.608C 227.665 71.72 227.929 73.8907 228.222 76.12L 228.486 76.12C 228.78 73.8907 229.073 71.6907 229.367 69.52C 229.66 67.3493 230.041 65.2373 230.511 63.184L 233.239 48.752L 242.302 48.752L 245.207 63.184C 245.617 65.3547 245.999 67.496 246.35 69.608C 246.703 71.72 247.025 73.8907 247.319 76.12L 247.671 76.12C 247.964 73.8907 248.198 71.72 248.374 69.608C 248.55 67.496 248.785 65.3547 249.079 63.184L 251.719 42.944L 263.511 42.944L 256.734 86.592L 241.775 86.592L 239.311 72.072C 239.017 70.0187 238.724 67.9653 238.43 65.912C 238.196 63.8 237.932 61.5707 237.638 59.224L 237.287 59.224C 237.111 60.808 236.905 62.5973 236.671 64.592C 236.495 66.5867 236.172 69.08 235.703 72.072L 233.326 86.592L 218.631 86.592L 211.415 42.944ZM 268.668 64.768C 268.668 61.1893 269.284 57.992 270.516 55.176C 271.807 52.36 273.508 49.984 275.62 48.048C 277.732 46.0533 280.137 44.528 282.836 43.472C 285.593 42.416 288.439 41.888 291.372 41.888C 294.716 41.888 297.679 42.416 300.26 43.472C 302.841 44.528 304.983 45.9947 306.684 47.872C 308.385 49.7493 309.676 51.9787 310.556 54.56C 311.436 57.0827 311.876 59.84 311.876 62.832C 311.876 64.0053 311.817 65.12 311.7 66.176C 311.583 67.232 311.465 68.024 311.348 68.552L 281.956 68.552C 282.425 71.8373 283.833 74.2133 286.18 75.68C 288.585 77.088 291.401 77.792 294.628 77.792C 296.623 77.792 298.5 77.5573 300.26 77.088C 302.079 76.56 303.956 75.7973 305.892 74.8L 310.116 82.544C 307.652 84.128 304.895 85.3893 301.844 86.328C 298.793 87.208 295.801 87.648 292.868 87.648C 289.465 87.648 286.297 87.1493 283.364 86.152C 280.431 85.096 277.879 83.6 275.708 81.664C 273.537 79.6693 271.807 77.264 270.516 74.448C 269.284 71.632 268.668 68.4053 268.668 64.768ZM 300.172 60.016C 300.172 57.552 299.497 55.5573 298.148 54.032C 296.799 52.5067 294.628 51.744 291.636 51.744C 289.289 51.744 287.207 52.4187 285.388 53.768C 283.569 55.1173 282.367 57.2 281.78 60.016L 300.172 60.016ZM 326.802 42.944L 337.362 42.944L 338.418 52.448L 338.682 52.448C 340.852 48.8693 343.463 46.2293 346.514 44.528C 349.564 42.768 352.85 41.888 356.37 41.888C 358.306 41.888 359.86 42.0347 361.034 42.328C 362.266 42.6213 363.527 43.0613 364.818 43.648L 362.178 54.472C 360.828 54.0613 359.596 53.768 358.482 53.592C 357.426 53.3573 356.076 53.24 354.434 53.24C 351.735 53.24 349.066 54.032 346.426 55.616C 343.844 57.2 341.615 59.9573 339.738 63.888L 339.738 86.592L 326.802 86.592L 326.802 42.944Z"/>
</defs>
</svg>
